HIERARCHY
ROOT Hips
{
	OFFSET 0.000000 0.000000 0.000000
	CHANNELS 6 Xposition Yposition Zposition Zrotation Yrotation Xrotation 
	JOINT LowerBack
	{
		OFFSET 0.000000 0.000000 0.000000
		CHANNELS 3 Zrotation Yrotation Xrotation
		JOINT Spine
		{
			OFFSET 0.028270 2.035590 -0.193380
			CHANNELS 3 Zrotation Yrotation Xrotation
			JOINT Spine1
			{
				OFFSET 0.056720 2.048850 -0.042750
				CHANNELS 3 Zrotation Yrotation Xrotation
				JOINT Neck
				{
					OFFSET 0.000000 0.000000 0.000000
					CHANNELS 3 Zrotation Yrotation Xrotation
					JOINT Neck1
					{
						OFFSET -0.054170 1.746240 0.172020
						CHANNELS 3 Zrotation Yrotation Xrotation
						JOINT Head
						{
							OFFSET 0.104070 1.761360 -0.123970
							CHANNELS 3 Zrotation Yrotation Xrotation
							End Site
							{
								OFFSET 0.000000 0.000000 0.000000
							}
						}
					}
				}
				JOINT LeftShoulder
				{
					OFFSET 0.000000 0.000000 0.000000
					CHANNELS 3 Zrotation Yrotation Xrotation
					JOINT LeftArm
					{
						OFFSET 3.362410 1.200890 -0.311210
						CHANNELS 3 Zrotation Yrotation Xrotation
						JOINT LeftForeArm
						{
							OFFSET 4.983000 -0.000000 -0.000000
							CHANNELS 3 Zrotation Yrotation Xrotation
							JOINT LeftHand
							{
								OFFSET 3.483560 -0.000000 -0.000000
								CHANNELS 3 Zrotation Yrotation Xrotation
								JOINT LeftFingerBase
								{
									OFFSET 0.000000 0.000000 0.000000
									CHANNELS 3 Zrotation Yrotation Xrotation
									JOINT LeftHandIndex1
									{
										OFFSET 0.715260 -0.000000 -0.000000
										CHANNELS 3 Zrotation Yrotation Xrotation
										End Site
										{
											OFFSET 0.000000 0.000000 0.000000
										}
									}
								}
								JOINT LThumb
								{
									OFFSET 0.000000 0.000000 0.000000
									CHANNELS 3 Zrotation Yrotation Xrotation
									End Site
									{
										OFFSET 0.000000 0.000000 0.000000
									}
								}
							}
						}
					}
				}
				JOINT RightShoulder
				{
					OFFSET 0.000000 0.000000 0.000000
					CHANNELS 3 Zrotation Yrotation Xrotation
					JOINT RightArm
					{
						OFFSET -3.136600 1.374050 -0.404650
						CHANNELS 3 Zrotation Yrotation Xrotation
						JOINT RightForeArm
						{
							OFFSET -5.241900 -0.000000 -0.000000
							CHANNELS 3 Zrotation Yrotation Xrotation
							JOINT RightHand
							{
								OFFSET -3.444170 -0.000000 -0.000000
								CHANNELS 3 Zrotation Yrotation Xrotation
								JOINT RightFingerBase
								{
									OFFSET 0.000000 0.000000 0.000000
									CHANNELS 3 Zrotation Yrotation Xrotation
									JOINT RightHandIndex1
									{
										OFFSET -0.622530 -0.000000 -0.000000
										CHANNELS 3 Zrotation Yrotation Xrotation
										End Site
										{
											OFFSET 0.000000 0.000000 0.000000
										}
									}
								}
								JOINT RThumb
								{
									OFFSET 0.000000 0.000000 0.000000
									CHANNELS 3 Zrotation Yrotation Xrotation
									End Site
									{
										OFFSET 0.000000 0.000000 0.000000
									}
								}
							}
						}
					}
				}
			}
		}
	}
}
}
MOTION
Frames: 18
Frame Time: 0.008333
6.539490 16.892141 -5.209393 -172.804398 44.969698 -174.832776 -3.331417 1.213704 -1.997301 -1.477187 1.333072 -2.891127 -5.848061 1.308699 1.995664 9.091988 -10.781501 -10.648334 -1.814685 -0.106242 -0.800058 0.000000 0.000000 0.000000 -2.824561 26.727360 1.133187 -62.310468 28.340885 -20.656895 -4.823866 -5.378315 -0.005604 3.466524 3.157657 0.102840 -0.180733 -0.077368 0.000000 0.000000 0.000000 0.000000 0.000000 0.000000 0.000000 10.108781 -4.174372 0.359586 44.752614 15.256045 6.346525 1.642347 48.400652 0.012123 2.615787 4.481588 0.106077 0.029996 -0.185359 -0.000000 0.000000 0.000000 0.000000 0.000000 0.000000 0.000000 
6.621386 16.889771 -5.336606 -173.017254 44.389670 -174.985339 -3.644614 1.061264 -1.936730 -1.540418 1.202667 -2.887472 -5.875822 1.178549 1.973550 9.272534 -10.886321 -10.730820 -1.829575 -0.106058 -0.824554 0.000000 0.000000 0.000000 -2.714846 26.462639 1.202505 -62.699468 27.769563 -20.438568 -4.816113 -5.799386 -0.006586 3.154386 3.368750 0.100038 -0.177311 -0.075660 0.000000 0.000000 0.000000 0.000000 0.000000 0.000000 0.000000 10.323304 -4.269344 0.346248 45.519790 14.729591 6.562809 1.660952 48.759279 0.012458 2.733982 4.438698 0.109890 0.030199 -0.183946 -0.000000 0.000000 0.000000 0.000000 0.000000 0.000000 0.000000 
6.699770 16.886676 -5.460822 -173.244111 43.733899 -175.145471 -3.959798 0.898668 -1.835755 -1.602331 1.063206 -2.876453 -5.899508 1.039698 1.947718 9.440389 -11.000268 -10.815175 -1.844571 -0.105758 -0.850041 0.000000 0.000000 0.000000 -2.587089 26.129575 1.279866 -63.140060 27.116816 -20.146085 -4.803666 -6.285799 -0.007531 2.841790 3.583125 0.096138 -0.173649 -0.073667 0.000000 0.000000 0.000000 0.000000 0.000000 0.000000 0.000000 10.521364 -4.380731 0.336278 46.325551 14.168053 6.724373 1.679577 49.088802 0.012716 2.813090 4.396353 0.112004 0.030913 -0.182789 -0.000000 0.000000 0.000000 0.000000 0.000000 0.000000 0.000000 
6.774579 16.882848 -5.582325 -173.472780 43.016247 -175.304599 -4.264417 0.731398 -1.699507 -1.660912 0.919020 -2.858681 -5.919922 0.896518 1.919612 9.593497 -11.126322 -10.898452 -1.859589 -0.105381 -0.875627 0.000000 0.000000 0.000000 -2.447600 25.738334 1.361233 -63.619133 26.386279 -19.751774 -4.785942 -6.855001 -0.008411 2.529638 3.797669 0.091042 -0.169746 -0.071501 0.000000 0.000000 0.000000 0.000000 0.000000 0.000000 0.000000 10.703012 -4.511712 0.329458 47.160707 13.581683 6.843670 1.698475 49.380062 0.012909 2.857040 4.361986 0.112819 0.032067 -0.181853 -0.000000 0.000000 0.000000 0.000000 0.000000 0.000000 0.000000 
6.845811 16.878537 -5.701621 -173.691772 42.255061 -175.452731 -4.544831 0.565171 -1.536988 -1.714001 0.774576 -2.835710 -5.938255 0.753434 1.890266 9.729110 -11.262132 -10.976176 -1.874997 -0.105040 -0.899934 0.000000 0.000000 0.000000 -2.308041 25.301966 1.441980 -64.119640 25.586451 -19.225422 -4.762494 -7.527580 -0.009213 2.216639 4.010736 0.084647 -0.165589 -0.069309 0.000000 0.000000 0.000000 0.000000 0.000000 0.000000 0.000000 10.867959 -4.659488 0.325115 48.017983 12.975839 6.929194 1.718238 49.624946 0.013059 2.876198 4.339891 0.113035 0.033527 -0.181045 -0.000000 0.000000 0.000000 0.000000 0.000000 0.000000 0.000000 
6.913493 16.874048 -5.819293 -173.891359 41.471235 -175.580546 -4.788534 0.405083 -1.360440 -1.759694 0.633831 -2.809778 -5.956004 0.614298 1.860704 9.844681 -11.402259 -11.043241 -1.891542 -0.104893 -0.921366 0.000000 0.000000 0.000000 -2.183403 24.836520 1.517133 -64.621097 24.726110 -18.541824 -4.732940 -8.321117 -0.009918 1.901206 4.218991 0.077057 -0.161165 -0.067227 0.000000 0.000000 0.000000 0.000000 0.000000 0.000000 0.000000 11.016989 -4.817919 0.322159 48.890765 12.353614 6.987268 1.739735 49.814610 0.013193 2.884996 4.331810 0.113051 0.035131 -0.180224 -0.000000 0.000000 0.000000 0.000000 0.000000 0.000000 0.000000 
6.977703 16.869800 -5.935976 -174.063843 40.686144 -175.678362 -4.984699 0.255065 -1.183854 -1.796266 0.499792 -2.782969 -5.974422 0.482024 1.833854 9.939300 -11.547286 -11.096578 -1.909698 -0.105052 -0.938847 0.000000 0.000000 0.000000 -2.090721 24.363678 1.581229 -65.100135 23.808267 -17.684119 -4.696873 -9.244478 -0.010507 1.583532 4.415936 0.067971 -0.156478 -0.065350 0.000000 0.000000 0.000000 0.000000 0.000000 0.000000 0.000000 11.153981 -4.987863 0.319327 49.769354 11.731862 7.032567 1.764144 49.934086 0.013329 2.894440 4.338306 0.113566 0.036781 -0.179223 -0.000000 0.000000 0.000000 0.000000 0.000000 0.000000 0.000000 
7.038593 16.866301 -6.052296 -174.205485 39.919837 -175.739987 -5.125507 0.118075 -1.021275 -1.822526 0.374777 -2.757897 -5.994804 0.358762 1.810789 10.010919 -11.689099 -11.131381 -1.930418 -0.105699 -0.950820 0.000000 0.000000 0.000000 -2.045794 23.900705 1.630007 -65.534639 22.840466 -16.647020 -4.654006 -10.301843 -0.010954 1.265794 4.592418 0.057490 -0.151550 -0.063734 0.000000 0.000000 0.000000 0.000000 0.000000 0.000000 0.000000 11.280120 -5.160757 0.314924 50.649756 11.111598 7.065520 1.792594 49.974610 0.013497 2.920376 4.354971 0.114879 0.038325 -0.177854 -0.000000 0.000000 0.000000 0.000000 0.000000 0.000000 0.000000 
7.096276 16.864035 -6.168777 -174.314737 39.188172 -175.761217 -5.206075 -0.004342 -0.884929 -1.837690 0.259972 -2.736541 -6.018099 0.245581 1.793474 10.058678 -11.823803 -11.144609 -1.954413 -0.106966 -0.956246 0.000000 0.000000 0.000000 -2.062239 23.465193 1.659799 -65.904333 21.824280 -15.437356 -4.603990 -11.487042 -0.011232 0.954148 4.735549 0.046010 -0.146421 -0.062369 0.000000 0.000000 0.000000 0.000000 0.000000 0.000000 0.000000 11.398195 -5.333153 0.307212 51.527283 10.501803 7.089665 1.826194 49.924931 0.013702 2.973516 4.376179 0.117491 0.039677 -0.175943 -0.000000 0.000000 0.000000 0.000000 0.000000 0.000000 0.000000 
7.150881 16.863451 -6.285820 -174.392823 38.502551 -175.741398 -5.224491 -0.111754 -0.784312 -1.841442 0.155681 -2.720607 -6.044954 0.142666 1.782719 10.081446 -11.943641 -11.133027 -1.982485 -0.108988 -0.954095 0.000000 0.000000 0.000000 -2.147805 23.069402 1.668645 -66.194474 20.760782 -14.075861 -4.546593 -12.785112 -0.011313 0.659321 4.830408 0.034136 -0.141159 -0.061177 0.000000 0.000000 0.000000 0.000000 0.000000 0.000000 0.000000 11.509238 -5.497639 0.294330 52.400640 9.901036 7.098917 1.865683 49.779194 0.013948 3.063081 4.393877 0.121399 0.040754 -0.173339 -0.000000 0.000000 0.000000 0.000000 0.000000 0.000000 0.000000 
7.202526 16.864961 -6.403665 -174.442090 37.867705 -175.682436 -5.181914 -0.204912 -0.724058 -1.833884 0.061258 -2.710504 -6.075323 0.049370 1.780271 10.079749 -12.051775 -11.096383 -2.014551 -0.111772 -0.944235 0.000000 0.000000 0.000000 -2.306838 22.721658 1.655127 -66.396054 19.648260 -12.590720 -4.481741 -14.177100 -0.011172 0.394624 4.863002 0.022767 -0.135854 -0.060051 0.000000 0.000000 0.000000 0.000000 0.000000 0.000000 0.000000 11.615569 -5.659204 0.275141 53.266160 9.322092 7.095216 1.911780 49.528119 0.014219 3.188916 4.400272 0.126405 0.041600 -0.169938 -0.000000 0.000000 0.000000 0.000000 0.000000 0.000000 0.000000 
7.251379 16.868773 -6.522352 -174.468525 37.282038 -175.592365 -5.082521 -0.285475 -0.703686 -1.815640 -0.024666 -2.706146 -6.108750 -0.035661 1.785814 10.053387 -12.145082 -11.033469 -2.050631 -0.115332 -0.926380 0.000000 0.000000 0.000000 -2.535456 22.421599 1.620012 -66.509130 18.487394 -11.020083 -4.409683 -15.639622 -0.010794 0.176136 4.820691 0.013002 -0.130621 -0.058839 0.000000 0.000000 0.000000 0.000000 0.000000 0.000000 0.000000 11.716268 -5.816131 0.248588 54.125321 8.763621 7.069656 1.964579 49.169704 0.014486 3.348756 4.387710 0.132307 0.042249 -0.165695 -0.000000 0.000000 0.000000 0.000000 0.000000 0.000000 0.000000 
7.297515 16.875070 -6.641810 -174.475130 36.737458 -175.478768 -4.930584 -0.355425 -0.719204 -1.787392 -0.103802 -2.706953 -6.144882 -0.114096 1.798102 10.002609 -12.216449 -10.943255 -2.090875 -0.119681 -0.900408 0.000000 0.000000 0.000000 -2.821745 22.165004 1.565885 -66.541837 17.276061 -9.403248 -4.330867 -17.145104 -0.010178 0.021927 4.694961 0.006142 -0.125592 -0.057352 0.000000 0.000000 0.000000 0.000000 0.000000 0.000000 0.000000 11.809607 -5.962016 0.213761 54.980641 8.212467 7.002063 2.023433 48.711987 0.014726 3.539602 4.347981 0.138506 0.042699 -0.160618 -0.000000 0.000000 0.000000 0.000000 0.000000 0.000000 0.000000 
7.341038 16.883799 -6.761816 -174.468240 36.220972 -175.354108 -4.733743 -0.417699 -0.761190 -1.750360 -0.178549 -2.711091 -6.182544 -0.188190 1.816437 9.929529 -12.271557 -10.827592 -2.134412 -0.124692 -0.867046 0.000000 0.000000 0.000000 -3.150812 21.940957 1.495423 -66.508361 16.016266 -7.778088 -4.246055 -18.673290 -0.009338 -0.052744 4.484676 0.002784 -0.120910 -0.055429 0.000000 0.000000 0.000000 0.000000 0.000000 0.000000 0.000000 11.895289 -6.104657 0.171022 55.831768 7.672004 6.886192 2.087750 48.157912 0.014893 3.747800 4.278001 0.144299 0.043094 -0.154793 -0.000000 0.000000 0.000000 0.000000 0.000000 0.000000 0.000000 
7.382061 16.894826 -6.882000 -174.452180 35.715889 -175.230273 -4.499024 -0.475140 -0.818909 -1.705717 -0.251246 -2.716716 -6.220757 -0.260147 1.839166 9.836920 -12.311474 -10.688163 -2.180566 -0.130250 -0.827025 0.000000 0.000000 0.000000 -3.502595 21.736519 1.412464 -66.427926 14.710989 -6.177530 -4.156176 -20.205074 -0.008306 -0.035215 4.194197 0.003131 -0.116719 -0.052908 -0.000000 0.000000 0.000000 0.000000 0.000000 0.000000 0.000000 11.972505 -6.246086 0.120884 56.679830 7.135111 6.708670 2.156363 47.519140 0.014960 3.960645 4.176634 0.148790 0.043527 -0.148355 -0.000000 0.000000 0.000000 0.000000 0.000000 0.000000 0.000000 
7.420737 16.907875 -7.002009 -174.432013 35.203862 -175.119870 -4.234625 -0.530954 -0.879663 -1.654821 -0.324440 -2.721686 -6.258221 -0.332379 1.864249 9.728699 -12.346288 -10.527896 -2.228130 -0.136180 -0.781387 0.000000 0.000000 0.000000 -3.857622 21.529651 1.320428 -66.321315 13.374488 -4.631571 -4.062160 -21.735797 -0.007133 0.079698 3.835729 0.006684 -0.113140 -0.049684 -0.000000 0.000000 0.000000 0.000000 0.000000 0.000000 0.000000 12.041372 -6.397997 0.065331 57.523344 6.605581 6.467707 2.228326 46.804287 0.014904 4.160414 4.047789 0.151376 0.044175 -0.141496 -0.000000 0.000000 0.000000 0.000000 0.000000 0.000000 0.000000 
7.457192 16.922657 -7.121434 -174.410031 34.667053 -175.031211 -3.947415 -0.587824 -0.933587 -1.598891 -0.400255 -2.724318 -6.294079 -0.406916 1.890251 9.609660 -12.377119 -10.349835 -2.276367 -0.142349 -0.731215 0.000000 0.000000 0.000000 -4.191643 21.308719 1.223508 -66.209949 12.010391 -3.157340 -3.965069 -23.253186 -0.005872 0.293482 3.423604 0.012441 -0.110291 -0.045619 -0.000000 0.000000 0.000000 0.000000 0.000000 0.000000 0.000000 12.102548 -6.561241 0.005430 58.361037 6.073051 6.152361 2.301935 46.032760 0.014719 4.335256 3.896664 0.151863 0.045089 -0.134419 -0.000000 0.000000 0.000000 0.000000 0.000000 0.000000 0.000000 
7.491623 16.938710 -7.239947 -174.388662 34.089595 -174.971186 -3.644534 -0.648349 -0.972441 -1.539180 -0.480681 -2.723295 -6.327432 -0.485692 1.915528 9.485417 -12.413052 -10.157875 -2.324205 -0.148596 -0.677725 0.000000 0.000000 0.000000 -4.485219 21.056434 1.124651 -66.112126 10.634627 -1.767696 -3.865752 -24.760863 -0.004595 0.597872 2.976193 0.018901 -0.108246 -0.040642 -0.000000 0.000000 0.000000 0.000000 0.000000 0.000000 0.000000 12.157899 -6.744813 -0.056573 59.190169 5.539049 5.765746 2.376018 45.218432 0.014413 4.472169 3.732737 0.149947 0.046370 -0.127344 0.000000 0.000000 0.000000 0.000000 0.000000 0.000000 0.000000 
